<svg id="Layer_1" data-name="Layer 1" xmlns="http://www.w3.org/2000/svg" viewBox="0 0 300 53.47"><defs><style>.cls-1{fill:#fff;}</style></defs><g id="HdFmb8.tif"><path class="cls-1" d="M293.17,15.49c.55,1.57,1.05,3,1.57,4.48l-1.57.56-1.59-4.42-1.14.38c.72,2.06,1.42,4.08,2.15,6.19l-1.55.56-2.21-6.15-1.36.45,5.63,16.15c-.68.42-1.3.83-2,1.19a1.44,1.44,0,0,1-.72.1L273,34l-.63-.06c-2.5-7-5-14-7.57-21.21a5.78,5.78,0,0,0,.64-.42q6.4-5.73,12.78-11.49a1.84,1.84,0,0,1,1.14-.55c.62,0,1.24-.13,2-.22,1.84,5.28,3.69,10.55,5.57,15.94l1.34-.49c-.72-2-1.41-4-2.15-6.15l1.55-.59c.74,2,1.45,4,2.2,6.14l1.16-.36c-.52-1.49-1-2.92-1.55-4.47L291,9.46l1.6,4.44,1.4-.5-.51-1.59,4.77-1.72c.57,1.6,1.12,3.15,1.72,4.81l-4.79,1.7-.59-1.51Z"/><path class="cls-1" d="M237.17,27.69l5.08-3.43.25-2.65L262,14l7.26,20.34c-.46.15-.86.3-1.27.42-.9.26-1.79.56-2.7.76a.93.93,0,0,0-.8.88c-.1.62-.23,1.23-.36,2l2.56.68c-.09.34-.18.63-.26.92-.51,1.65-.67,1.11.6,2.36s2.53,2.43,3.74,3.69a2.34,2.34,0,0,0,1.63.78c.34,0,.67.08,1,.12a48.9,48.9,0,0,1-4.37,6.52,5.34,5.34,0,0,1-.55-.42c-2.76-2.69-5.5-5.38-8.28-8a1.18,1.18,0,0,1-.34-1.4c.31-.94.53-1.91.85-3.05-2,.87-3.72,1.89-5.64,2.81-.62-1.42-1-2.88-1.64-4.41l-5.12,1.23-4.67-11.33L240.4,30.6c.06.25.1.46.17.66.52,1.51,1.05,3,1.56,4.53a1,1,0,0,0,.84.73c.77.12,1.53.3,2.33.47.07.52.13,1,.19,1.59l-4.51.18C239.71,35.06,238.45,31.41,237.17,27.69Z"/><path class="cls-1" d="M17,38.07H11.81q-.9-4.29-1.81-8.59l-.22,0c0,5.18.23,10.36.16,15.65L0,45.52c.18-8.85.35-17.6.53-26.32a102.2,102.2,0,0,1,11.93-.26l2.06,10c1.23-3.21,2.11-6.51,3.17-9.81l9.46-.19c.32,8.76.64,17.41,1,26A72.84,72.84,0,0,1,18.6,45q.11-7.82.23-15.66h-.19Z"/><path class="cls-1" d="M210.43,45.21h-10c-1.69-5-3.4-10-5.11-15l-.19.05a.1.1,0,0,0-.06.05.14.14,0,0,0,0,.09v.37q.41,7.13.8,14.24a.54.54,0,0,1,0,.15h-8q.13-13.08.26-26.12a66.91,66.91,0,0,1,9.46-.09c1,3.75,2.09,7.53,3.15,11.31l.18,0-.65-11a78,78,0,0,1,10.23-.24C210.56,19.59,210.64,43.54,210.43,45.21Z"/><path class="cls-1" d="M133.57,18.88l7.44-.15v9h3c.06-1,0-2,0-2.92s0-1.94,0-2.91,0-1.92,0-2.94h11q.12,13.38.22,26.7H144.12c-.06-3.79-.12-7.46-.18-11.2h-2.79V38.1c0,1.22,0,2.44,0,3.66s0,2.43,0,3.76h-7.74C133.28,44.87,133.35,20.61,133.57,18.88Z"/><path class="cls-1" d="M77.07,28.49H67.19c0-.5-.06-.93-.12-1.36a3.33,3.33,0,0,0-.83-1.86A1.52,1.52,0,0,0,64,25.12a4.75,4.75,0,0,0-.89,1.19,7.84,7.84,0,0,0-.9,3.14,21.67,21.67,0,0,0,.35,6.72,5.33,5.33,0,0,0,.54,1.49,1.52,1.52,0,0,0,2.64.3,5.86,5.86,0,0,0,1.12-2c.34-1.16.49-2.37.74-3.61h9.32c.25.82.54,11.15.4,13.27a74.89,74.89,0,0,1-9.5.08V43.32c-.29.19-.47.28-.62.4A8.26,8.26,0,0,1,54.3,41.39,12.61,12.61,0,0,1,52.9,37a31.27,31.27,0,0,1,.41-11.65,7.91,7.91,0,0,1,5.31-6,20.67,20.67,0,0,1,8.21-1.19,26.67,26.67,0,0,1,4.09.46A7.24,7.24,0,0,1,77,25.12,9.29,9.29,0,0,1,77.07,28.49Z"/><path class="cls-1" d="M171.68,18a12.14,12.14,0,0,1,9.47,4.67,15,15,0,0,1,.27,18.38,12.17,12.17,0,0,1-18.92.85,14.87,14.87,0,0,1,.57-20.4A12.1,12.1,0,0,1,171.68,18Zm2.93,14c-.09-.81-.16-1.81-.31-2.8a9.42,9.42,0,0,0-1.37-4,1.69,1.69,0,0,0-3,0,8.55,8.55,0,0,0-1.06,2.27,16.38,16.38,0,0,0-.47,6,11,11,0,0,0,.84,3.92,7.08,7.08,0,0,0,1,1.67,1.65,1.65,0,0,0,2.67-.1,8.17,8.17,0,0,0,1-1.88A13,13,0,0,0,174.61,32.06Z"/><path class="cls-1" d="M84.43,19.1H98.9q2.8,12.7,5.64,25.63l-7,.74c-.16-1.31-.32-2.54-.48-3.8H92.47l-.6,3.81-11.15-.19C82,36.54,83.19,27.9,84.43,19.1Zm10.42,7.23c-.42,3.1-.85,6.24-1.28,9.39H97c0-.41-.06-.72-.11-1-.25-1.6-.52-3.2-.78-4.8-.18-1-.36-2.09-.52-3.14C95.53,26.36,95.41,26.1,94.85,26.33Z"/><path class="cls-1" d="M108,18.79c.23,0,.41-.05.59-.05,4.26-.08,8.51-.18,12.77-.21A9.13,9.13,0,0,1,130.35,27a9.45,9.45,0,0,1-5.44,9.38,15.72,15.72,0,0,1-6.53,1.5h-1.21v7.34h-9C107.93,44.45,107.85,20.68,108,18.79Zm9.07,12.45a3.33,3.33,0,0,0,3.41-3.38,3.13,3.13,0,0,0-3.41-3.18Z"/><path class="cls-1" d="M224.05,29.36h4.35v5.53c-1.44.17-2.84,0-4.29.12v4l7.42.24v6.39l-17.73-.51V19.28c5.7-.26,11.35-.38,17-.6a34.5,34.5,0,0,1,.29,6.37l-6.56.1C224.34,26.58,224.2,27.9,224.05,29.36Z"/><path class="cls-1" d="M42.12,38.9l7.42.25v6.38L31.87,45c-.2-.75-.16-24.79.05-25.89l17-.57c.08,2.13.15,4.18.23,6.33l-6.66.18L42,29.19l4.33.15v5.49H42.12Z"/></g></svg>